# AST/ASF file generated using VICON BodyLanguage
# -----------------------------------------------
:version 1.10
:name VICON
:units
  mass 1.0
  length 0.45
  angle deg
:documentation
   .ast/.asf automatically generated from VICON data using
   VICON BodyBuilder and BodyLanguage model FoxedUp or BRILLIANT.MOD
:root
   order TX TY TZ RX RY RZ
   axis XYZ
   position 0 0 0  
   orientation 0 0 0 
:bonedata
  begin
     id 1 
     name lhipjoint
     direction 0.576517 -0.752066 0.319413 
     length 2.45433 
     axis 0 0 0  XYZ
  end
  begin
     id 2 
     name lfemur
     direction 0.34202 -0.939693 0  
     length 7.54459  
     axis 0 0 20  XYZ
    dof rx ry rz
    limits (-160.0 20.0)
           (-70.0 70.0)
           (-60.0 70.0)
  end
  begin
     id 3 
     name ltibia
     direction 0.34202 -0.939693 0   
     length 7.73986   
     axis 0 0 20   XYZ
    dof rx
    limits (-10.0 170.0)
  end
  begin
     id 4 
     name lfoot
     direction 0.090693 -0.249177 0.964202   
     length 2.28437   
     axis -90 7.62852e-016 20   XYZ
    dof rx rz
    limits (-45.0 90.0)
           (-70.0 20.0)
  end
  begin
     id 5 
     name ltoes
     direction 1.5356e-011 -4.21928e-011 1   
     length 1.14243   
     axis -90 7.62852e-016 20   XYZ
    dof rx
    limits (-90.0 20.0)
  end
  begin
     id 6 
     name rhipjoint
     direction -0.573937 -0.753736 0.320122   
     length 2.44889  
     axis 0 0 0  XYZ 
  end
  begin
     id 7 
     name rfemur
     direction -0.34202 -0.939693 0   
     length 7.50166   
     axis 0 0 -20   XYZ
    dof rx ry rz
    limits (-160.0 20.0)
           (-70.0 70.0)
           (-70.0 60.0)
  end
  begin
     id 8 
     name rtibia
     direction -0.34202 -0.939693 0   
     length 7.54266   
     axis 0 0 -20   XYZ
    dof rx
    limits (-10.0 170.0)
 end
 begin
     id 9 
     name rfoot
     direction -0.114017 -0.31326 0.942798   
     length 2.34212  
     axis -90 -7.62852e-016 -20   XYZ
    dof rx rz
    limits (-45.0 90.0)
           (-20.0 70.0)
  end
  begin
     id 10 
     name rtoes
     direction -1.53557e-011 -4.21867e-011 1   
     length 1.16246   
     axis -90 -7.62852e-016 -20   XYZ
    dof rx
    limits (-90.0 20.0)
  end
  begin
     id 11 
     name lowerback
     direction -0.0228371 0.999155 -0.034167   
     length 2.0537   
     axis 0 0 0   XYZ
    dof rx ry rz
    limits (-20.0 45.0)
           (-30.0 30.0)
           (-30.0 30.0)
  end
  begin
     id 12 
     name upperback
     direction 0.0198981 0.999794 0.00389455   
     length 2.05302   
     axis 0 0 0   XYZ
    dof rx ry rz
    limits (-20.0 45.0)
           (-30.0 30.0)
           (-30.0 30.0)
  end
  begin
     id 13 
     name thorax
     direction 0.0304566 0.99935 0.0192987   
     length 2.05315   
     axis 0 0 0   XYZ
    dof rx ry rz
    limits (-20.0 45.0)
           (-30.0 30.0)
           (-30.0 30.0)
  end
  begin
     id 14 
     name lowerneck
     direction -0.0196762 0.99417 0.106017   
     length 1.82056   
     axis 0 0 0   XYZ
    dof rx ry rz
    limits (-20.0 45.0)
           (-30.0 30.0)
           (-30.0 30.0)
  end
  begin
     id 15 
     name upperneck
     direction 0.00517787 0.9802 -0.197944   
     length 1.83835   
     axis 0 0 0   XYZ
    dof rx ry rz
    limits (-20.0 45.0)
           (-30.0 30.0)
           (-30.0 30.0)
  end
  begin
     id 16
     name head
     direction 0.00211419 0.996945 -0.078081  
     length 1.85629  
     axis 0 0 0   XYZ
    dof rx ry rz
    limits (-20.0 45.0)
           (-30.0 30.0)
           (-30.0 30.0)
  end
  begin
     id 17 
     name lclavicle
     direction 0.930001 0.365811 -0.0357824  
     length 3.81961  
     axis 0 0 0   XYZ
    dof ry rz
    limits (-20.0 10.0)
           (0.0 20.0)
  end
  begin
     id 18 
     name lhumerus
     direction 1 -4.48968e-011 -3.06644e-027   
     length 5.14507   
     axis 180 -30 -90   XYZ
    dof rx ry rz
    limits (-60.0 90.0)
           (-90.0 90.0)
           (-90.0 90.0)
  end
  begin
     id 19
     name lradius
     direction 1 -4.48965e-011 9.06925e-028   
     length 3.50646   
     axis 180 -30 -90   XYZ
    dof rx
    limits (-10.0 170.0)
  end
  begin
     id 20
     name lwrist
     direction 1 -4.48957e-011 1.03922e-027   
     length 1.75323   
     axis -2.56395e-016 90 90   XYZ
    dof ry
    limits (-180.0 0.0)
 end
  begin
     id 21 
     name lhand
     direction 1 -4.48967e-011 2.08017e-027   
     length 0.629969   
     axis -1.32723e-015 90 90   XYZ
    dof rx rz
    limits (-90.0 90.0)
           (-45.0 45.0)
  end
  begin
     id 22 
     name lfingers
     direction 1 -4.49089e-011 4.20095e-027   
     length 0.507897   
     axis -2.6545e-015 90 90   XYZ
    dof rx
    limits (0.0 90.0)
  end
  begin
     id 23
     name lthumb
     direction 0.707107 -6.35001e-011 0.707107   
     length 0.729241   
     axis -90 45 5.05613e-014   XYZ
    dof rx rz
    limits (-45.0 45.0)
           (-45.0 45.0)
  end
  begin
     id 24 
     name rclavicle
     direction -0.881882 0.464123 -0.0829113   
     length 3.47515  
     axis 0 0 0   XYZ 
    dof ry rz
    limits (-10.0 20.0)
           (-20.0 0.0)
  end
  begin
     id 25 
     name rhumerus
     direction -1 -4.48961e-011 -1.55672e-027  
     length 5.232   
     axis 180 30 90   XYZ
    dof rx ry rz
    limits (-90.0 60.0)
           (-90.0 90.0)
           (-90.0 90.0)
  end
  begin
     id 26 
     name rradius
     direction -1 -4.48963e-011 6.18178e-029   
     length 3.65641   
     axis 180 30 90   XYZ
    dof rx
    limits (-10.0 170.0)
  end
  begin
     id 27 
     name rwrist
     direction -1 -4.48982e-011 1.04136e-027   
     length 1.8282   
     axis -2.56395e-016 -90 -90   XYZ
    dof ry
    limits (-180.0 0.0)
  end
  begin
     id 28
     name rhand
     direction -1 -4.48929e-011 2.07378e-027   
     length 0.656807   
     axis -1.32723e-015 -90 -90   XYZ
    dof rx rz
    limits (-90.0 90.0)
           (-45.0 45.0)
  end
  begin
     id 29
     name rfingers
     direction -1 -4.489e-011 4.13816e-027   
     length 0.529535   
     axis -2.6545e-015 -90 -90   XYZ
    dof rx
    limits (0.0 90.0)
  end
  begin
     id 30
     name rthumb
     direction -0.707107 -6.34843e-011 0.707107   
     length 0.760309   
     axis -90 -45 -5.05613e-014   XYZ
    dof rx rz
    limits (-45.0 45.0)
           (-45.0 45.0)
  end
:hierarchy
  begin
    root lhipjoint rhipjoint lowerback
    lhipjoint lfemur
    lfemur ltibia
    ltibia lfoot
    lfoot ltoes
    rhipjoint rfemur
    rfemur rtibia
    rtibia rfoot
    rfoot rtoes
    lowerback upperback
    upperback thorax
    thorax lowerneck lclavicle rclavicle
    lowerneck upperneck
    upperneck head
    lclavicle lhumerus
    lhumerus lradius
    lradius lwrist
    lwrist lhand lthumb
    lhand lfingers
    rclavicle rhumerus
    rhumerus rradius
    rradius rwrist
    rwrist rhand rthumb
    rhand rfingers
  end

#!OML:ASF H:\ManfredETheater\Project 1\Capture day 1\Session 1\subject.ASF
:FULLY-SPECIFIED
:DEGREES
1
root 15.0256 15.9568 -45.5295 26.6381 2.59233 3.05617
lowerback 16.3358 0.662396 4.6453
upperback 1.1803 1.65108 -0.802273
thorax -7.74786 0.622787 -3.87329
lowerneck -12.8524 -11.3743 -10.5431
upperneck -3.23859 -13.9432 11.2454
head 2.59691 -6.62846 4.08732
rclavicle -1.51076e-014 -1.35174e-014
rhumerus -28.776 22.9009 -84.3118
rradius 106.49
rwrist -2.68809
rhand -23.9688 3.45539
rfingers 7.12502
rthumb 2.50753 -26.5096
lclavicle -1.51076e-014 -1.35174e-014
lhumerus -74.8325 -8.33683 84.114
lradius 112.679
lwrist 14.1409
lhand -21.8213 -10.3843
lfingers 7.12502
lthumb 4.58137 19.5461
rfemur 9.1343 6.62709 34.7622
rtibia 32.6876
rfoot 17.8688 -10.5263
rtoes -24.766
lfemur -82.0004 8.6799 -24.096
ltibia 60.7201
lfoot 2.08149 -14.7856
ltoes -17.2485
2
root 14.9187 15.9084 -45.0373 26.1655 3.1043 3.68638
lowerback 16.5305 0.403502 3.96051
upperback 1.2161 1.17367 -1.04711
thorax -7.87235 0.409491 -3.6459
lowerneck -12.0096 -11.3132 -10.4367
upperneck -3.57544 -13.9475 11.5785
head 2.39163 -6.65408 4.21961
rclavicle 3.97569e-016 -1.66979e-014
rhumerus -30.5475 21.8665 -85.5348
rradius 102.911
rwrist -3.52742
rhand -24.4196 3.30681
rfingers 7.12502
rthumb 2.07217 -26.6629
lclavicle 3.97569e-016 -1.66979e-014
lhumerus -73.153 -8.47914 83.9302
lradius 112.644
lwrist 14.7919
lhand -22.0558 -9.92899
lfingers 7.12502
lthumb 4.35492 20.0062
rfemur 6.94532 5.4931 34.8384
rtibia 39.146
rfoot 15.8695 -11.5155
rtoes -23.5035
lfemur -80.5012 8.3525 -24.4534
ltibia 61.9565
lfoot -0.727143 -16.0134
ltoes -11.0659
3
root 14.807 15.9145 -44.5269 25.5911 3.66043 4.48364
lowerback 16.8585 0.114844 3.3443
upperback 1.37359 0.666841 -1.3276
thorax -7.93259 0.183346 -3.48661
lowerneck -11.6198 -11.3484 -10.4901
upperneck -3.61861 -14.0323 11.8855
head 2.35907 -6.70205 4.32884
rclavicle -8.74653e-015 4.77083e-015
rhumerus -32.0638 20.5204 -86.4698
rradius 99.2736
rwrist -3.83736
rhand -24.2174 2.11537
rfingers 7.12502
rthumb 2.26742 -27.8523
lclavicle -8.74653e-015 4.77083e-015
lhumerus -71.0388 -8.81383 83.942
lradius 112.498
lwrist 15.5322
lhand -21.7567 -9.96886
lfingers 7.12502
lthumb 4.64375 19.9602
rfemur 4.1848 4.35894 34.7751
rtibia 45.5636
rfoot 15.8341 -11.4738
rtoes -23.9641
lfemur -78.2553 7.75958 -24.2751
ltibia 63.4947
lfoot -3.99964 -15.6792
ltoes -7.78727
4
root 14.7036 15.8667 -44.0355 24.9682 4.34092 5.31188
lowerback 17.2974 -0.177096 2.83115
upperback 1.54955 0.174519 -1.6123
thorax -8.02641 -0.0395557 -3.39134
lowerneck -11.5499 -11.3874 -10.5837
upperneck -3.41668 -14.1007 12.1036
head 2.44189 -6.72947 4.39651
rclavicle 7.15625e-015 1.55052e-014
rhumerus -33.4156 18.8136 -87.2773
rradius 95.4153
rwrist -4.67298
rhand -23.9148 1.26852
rfingers 7.12502
rthumb 2.55961 -28.6959
lclavicle 7.15625e-015 1.55052e-014
lhumerus -68.657 -9.46622 84.0792
lradius 112.19
lwrist 16.244
lhand -21.3461 -9.99316
lfingers 7.12502
lthumb 5.0402 19.9269
rfemur 1.87132 2.89344 34.6348
rtibia 51.4594
rfoot 15.0739 -11.2985
rtoes -25.0234
lfemur -75.8134 7.07207 -24.2221
ltibia 64.9905
lfoot -7.01198 -14.722
ltoes -4.98556
5
root 14.5813 15.8631 -43.5418 24.3979 5.11717 6.91735
lowerback 17.9206 -0.531243 1.6982
upperback 1.71871 -0.524684 -1.93453
thorax -8.23478 -0.341798 -2.92794
lowerneck -11.2677 -11.5014 -10.7474
upperneck -3.60855 -14.2499 12.1903
head 2.37544 -6.81241 4.45021
rclavicle -1.63003e-014 1.63003e-014
rhumerus -34.9607 16.8029 -88.1109
rradius 91.3169
rwrist -5.29975
rhand -24.0186 1.08004
rfingers 7.12502
rthumb 2.45944 -28.8855
lclavicle -1.63003e-014 1.63003e-014
lhumerus -65.7459 -10.3801 84.8398
lradius 111.546
lwrist 16.0217
lhand -21.2696 -10.1178
lfingers 7.12502
lthumb 5.114 19.8005
rfemur -0.792383 1.08787 33.4871
rtibia 57.2148
rfoot 12.0832 -10.7472
rtoes -29.6877
lfemur -73.6359 6.31577 -25.1162
ltibia 66.0723
lfoot -9.72376 -14.3215
ltoes -5.65519
